<?xml version="1.0" encoding="utf-8"?>
<!-- Generator: Adobe Illustrator 21.0.2, SVG Export Plug-In . SVG Version: 6.00 Build 0)  -->
<svg version="1.1" xmlns="http://www.w3.org/2000/svg" xmlns:xlink="http://www.w3.org/1999/xlink" x="0px" y="0px"
	 viewBox="0 0 180 180" style="enable-background:new 0 0 180 180;" xml:space="preserve">
<style type="text/css">
	.st0{fill:#E2E2E2;}
	.st1{fill:none;}
	.st2{fill:#FFFFFF;}
	.st3{fill:url(#SVGID_1_);stroke:url(#SVGID_2_);stroke-width:0.6444;stroke-linejoin:round;stroke-miterlimit:10;}
	.st4{fill:url(#SVGID_3_);stroke:url(#SVGID_4_);stroke-width:0.6444;stroke-linejoin:round;stroke-miterlimit:10;}
	.st5{fill:url(#SVGID_5_);stroke:url(#SVGID_6_);stroke-width:0.6444;stroke-linejoin:round;stroke-miterlimit:10;}
	.st6{fill:url(#SVGID_7_);stroke:url(#SVGID_8_);stroke-width:0.6444;stroke-linejoin:round;stroke-miterlimit:10;}
	.st7{fill:url(#SVGID_9_);stroke:url(#SVGID_10_);stroke-width:0.6444;stroke-linejoin:round;stroke-miterlimit:10;}
	.st8{fill:url(#SVGID_11_);stroke:url(#SVGID_12_);stroke-width:0.6444;stroke-linejoin:round;stroke-miterlimit:10;}
</style>
<g id="Layer_1">
	<polygon class="st0" points="163.7,129.8 163.7,129.8 163.7,129.8 	"/>
	<line class="st1" x1="163.7" y1="129.9" x2="163.7" y2="129.9"/>
	<polygon class="st0" points="65.2,144.8 65.2,144.8 65.1,144.8 	"/>
	<line class="st1" x1="65.2" y1="144.8" x2="65.2" y2="144.8"/>
	<line class="st1" x1="65.2" y1="144.8" x2="65.2" y2="144.8"/>
</g>
<g id="Layer_2">
	<g>
		<g>
			<path class="st2" d="M15.5,118.9h13.9v1.1H16.6v12.4h11.2v1.1H16.6v13.7h-1.1V118.9z"/>
			<path class="st2" d="M33.6,118.8h1.1v3.8h-1.1V118.8z M33.6,127h1.1v20.2h-1.1V127z"/>
			<path class="st2" d="M40.6,127h1.1v3.6c0,1.1-0.2,1.9-0.2,1.9h0.1c1.1-3.2,3.4-5.6,6.8-5.6c0.6,0,1.2,0.1,1.2,0.1v1.1
				c0,0-0.6-0.1-1.1-0.1c-4.9,0-6.8,5.3-6.8,9.7v9.5h-1.1V127z"/>
			<path class="st2" d="M52.7,127h1.1v3.9c0,0.8-0.2,1.5-0.2,1.5h0.1c0.7-1.8,3.1-5.9,8.5-5.9c4.1,0,5.6,2.6,6,5.7h0.1
				c1.2-2.3,3.8-5.7,8.3-5.7c4.8,0,6.2,3.2,6.2,7.6v13.1h-1.1v-12.8c0-3.2-0.5-6.8-5.1-6.8c-5.1,0-8,5.5-8.2,7.4v12.2h-1.1v-12.8
				c0-3.2-0.6-6.8-5-6.8c-4.3,0-7.2,3.1-8.1,6.5c-0.2,0.8-0.3,1.8-0.3,2.7v10.4h-1.1V127z"/>
			<path class="st2" d="M105.9,120H95.2v-1.1h22.6v1.1H107v27.2h-1.1V120z"/>
			<path class="st2" d="M114.8,137c0-5.9,4.5-10.5,10.4-10.5c5.9,0,10.4,4.6,10.4,10.5c0,6-4.5,10.7-10.4,10.7
				C119.3,147.7,114.8,143,114.8,137z M134.4,137c0-5.5-4.2-9.4-9.3-9.4c-5.1,0-9.3,3.9-9.3,9.4c0,5.6,4.2,9.6,9.3,9.6
				C130.2,146.6,134.4,142.6,134.4,137z"/>
			<path class="st2" d="M140.3,128.1h-2.5V127h2.5V126c0-6.5,4.3-7.4,6.3-7.4c0.5,0,0.8,0,0.8,0v1.1c0,0-0.3,0-0.8,0
				c-1.8,0-5.3,0.6-5.3,6.3v0.8h5.5v1.1h-5.5v19.1h-1.1V128.1z"/>
			<path class="st2" d="M149.6,127h1.1v12.8c0,3.2,0.7,6.8,5.4,6.8c4.6,0,7.6-3.1,8.5-6.5c0.2-0.8,0.3-1.8,0.3-2.8V127h1.1v20.2
				h-1.1v-3.9c0-0.9,0.2-1.6,0.2-1.6h-0.1c-0.7,1.9-3.2,6-9,6c-4.9,0-6.5-3.2-6.5-7.6V127z"/>
		</g>
	</g>
	<g>
		<linearGradient id="SVGID_1_" gradientUnits="userSpaceOnUse" x1="58.219" y1="69.0562" x2="117.822" y2="9.4531">
			<stop  offset="0" style="stop-color:#FFFFFF"/>
			<stop  offset="0.5462" style="stop-color:#FEFDF5"/>
			<stop  offset="1" style="stop-color:#ECE1EC"/>
		</linearGradient>
		<linearGradient id="SVGID_2_" gradientUnits="userSpaceOnUse" x1="88.0166" y1="24.594" x2="88.0166" y2="56.6825">
			<stop  offset="0" style="stop-color:#F3F3F3"/>
			<stop  offset="1" style="stop-color:#818181"/>
		</linearGradient>
		<path class="st3" d="M145.1,41.4L90.5,56.3c-0.4,0.1-0.8,0.1-1.2,0L31,41.3c-2.3-0.6-2.3-3.6,0-4.1L89.4,25c0.3-0.1,0.7-0.1,1,0
			l54.7,12.3C147.4,37.8,147.3,40.7,145.1,41.4z"/>
		<linearGradient id="SVGID_3_" gradientUnits="userSpaceOnUse" x1="102.6188" y1="59.159" x2="102.6963" y2="59.0815">
			<stop  offset="0" style="stop-color:#FFFFFF"/>
			<stop  offset="0.5462" style="stop-color:#FEFDF5"/>
			<stop  offset="1" style="stop-color:#ECE1EC"/>
		</linearGradient>
		<linearGradient id="SVGID_4_" gradientUnits="userSpaceOnUse" x1="102.6391" y1="58.7611" x2="102.6391" y2="59.4793">
			<stop  offset="0" style="stop-color:#F3F3F3"/>
			<stop  offset="1" style="stop-color:#818181"/>
		</linearGradient>
		<polygon class="st4" points="102.7,59.1 102.7,59.2 102.6,59.1 		"/>
		<linearGradient id="SVGID_5_" gradientUnits="userSpaceOnUse" x1="102.6981" y1="59.1719" x2="102.6981" y2="59.1719">
			<stop  offset="0" style="stop-color:#FFFFFF"/>
			<stop  offset="0.5462" style="stop-color:#FEFDF5"/>
			<stop  offset="1" style="stop-color:#ECE1EC"/>
		</linearGradient>
		<linearGradient id="SVGID_6_" gradientUnits="userSpaceOnUse" x1="102.6981" y1="58.8497" x2="102.6981" y2="59.4941">
			<stop  offset="0" style="stop-color:#F3F3F3"/>
			<stop  offset="1" style="stop-color:#818181"/>
		</linearGradient>
		<line class="st5" x1="102.7" y1="59.2" x2="102.7" y2="59.2"/>
		<linearGradient id="SVGID_7_" gradientUnits="userSpaceOnUse" x1="102.6981" y1="59.1719" x2="102.6981" y2="59.1719">
			<stop  offset="0" style="stop-color:#FFFFFF"/>
			<stop  offset="0.5462" style="stop-color:#FEFDF5"/>
			<stop  offset="1" style="stop-color:#ECE1EC"/>
		</linearGradient>
		<linearGradient id="SVGID_8_" gradientUnits="userSpaceOnUse" x1="102.6981" y1="58.8497" x2="102.6981" y2="59.4941">
			<stop  offset="0" style="stop-color:#F3F3F3"/>
			<stop  offset="1" style="stop-color:#818181"/>
		</linearGradient>
		<line class="st6" x1="102.7" y1="59.2" x2="102.7" y2="59.2"/>
		<linearGradient id="SVGID_9_" gradientUnits="userSpaceOnUse" x1="32.4585" y1="96.4348" x2="76.3554" y2="52.5378">
			<stop  offset="0" style="stop-color:#FFFFFF"/>
			<stop  offset="0.5462" style="stop-color:#FEFDF5"/>
			<stop  offset="1" style="stop-color:#ECE1EC"/>
		</linearGradient>
		<linearGradient id="SVGID_10_" gradientUnits="userSpaceOnUse" x1="18.6619" y1="75.0637" x2="87.7955" y2="75.0637">
			<stop  offset="0" style="stop-color:#F3F3F3"/>
			<stop  offset="1" style="stop-color:#818181"/>
		</linearGradient>
		<path class="st7" d="M25.4,45.2l58.4,15.7c2.1,0.6,3.7,2.6,3.7,4.8l0,34.5c0,3.3-0.6,5.9-3.7,4.8L25.4,86.3
			c-2-0.8-6.4-1.5-6.3-4.5l0-32.2C19,46.4,22.3,44.3,25.4,45.2z"/>
		<linearGradient id="SVGID_11_" gradientUnits="userSpaceOnUse" x1="93.0851" y1="104.3517" x2="153.0846" y2="44.3522">
			<stop  offset="0" style="stop-color:#FFFFFF"/>
			<stop  offset="0.5462" style="stop-color:#FEFDF5"/>
			<stop  offset="1" style="stop-color:#ECE1EC"/>
		</linearGradient>
		<linearGradient id="SVGID_12_" gradientUnits="userSpaceOnUse" x1="92.0352" y1="75.0383" x2="156.6871" y2="75.0383">
			<stop  offset="0" style="stop-color:#F3F3F3"/>
			<stop  offset="1" style="stop-color:#818181"/>
		</linearGradient>
		<path class="st8" d="M150,45.1L96.1,60.8c-2.1,0.6-3.7,2.7-3.7,4.9l0,34.4c0,3.3,0.6,5.9,3.7,4.8L150,86.2c2-0.8,6.4-2.4,6.3-4.5
			l0-32.2C156.4,46.3,153.1,44.2,150,45.1z"/>
	</g>
</g>
</svg>
